# File created by Blade
# Date/Time:  Wed Jan 28 15:39:58 2015
#---------------------------------------------------------
:version 1.10
:name HOM
:units
  mass 1.0
  length 1.000000
  angle deg
:documentation
     Acclaim Skeleton File
:root
   axis xyz
   order TX TY TZ RX RY RZ
   position 0.000000 0.000000 0.000000
   orientation 0 0 0
:bonedata
   begin
      id 1
      name Spine_dum
      direction 0.000000 1.000000 0.000000
      length 6.864287
      axis 0.0 0.0 0.0 xyz
   end
   begin
      id 2
      name LeftUpLeg_dum
      direction 1.000000 0.000000 0.000000
      length 4.117376
      axis 0.0 0.0 0.0 xyz
   end
   begin
      id 3
      name RightUpLeg_dum
      direction -1.000000 0.000000 0.000000
      length 4.117376
      axis 0.0 0.0 0.0 xyz
   end
   begin
      id 4
      name Spine
      direction 0.000000 1.000000 0.000000
      length 0.000000
      axis 0.0 0.0 0.0 xyz
      dof rx ry rz
   end
   begin
      id 5
      name Spine_dum1
      direction 0.000000 1.000000 0.000000
      length 15.393827
      axis 0.0 0.0 0.0 xyz
   end
   begin
      id 6
      name Spine_dum2
      direction 0.000000 1.000000 0.000000
      length 9.314826
      axis 0.0 0.0 0.0 xyz
   end
   begin
      id 7
      name Spine_dum3
      direction 0.000000 1.000000 0.000000
      length 9.314826
      axis 0.0 0.0 0.0 xyz
   end
   begin
      id 8
      name Head
      direction 0.000000 1.000000 0.000000
      length 4.527550
      axis 0.0 0.0 0.0 xyz
      dof rx ry rz
   end
   begin
      id 9
      name LeftShoulder
      direction 1.000000 0.000000 0.000000
      length 8.275398
      axis 0.0 0.0 -90.0 xyz
      dof rx ry rz
   end
   begin
      id 10
      name LeftArm
      direction 1.000000 0.000000 0.000000
      length 12.002200
      axis 0.0 0.0 -90.0 xyz
      dof rx ry rz
   end
   begin
      id 11
      name LeftForeArm
      direction 1.000000 0.000000 0.000000
      length 10.144633
      axis 0.0 0.0 -90.0 xyz
      dof ry rz rx
   end
   begin
      id 12
      name LeftHand
      direction 0.000000 0.000000 0.000000
      length 0.000000
      axis 0.0 0.0 -90.0 xyz
      dof rx ry rz
   end
   begin
      id 13
      name LeftHand_dum1
      direction 0.000000 0.000000 0.000000
      length 0.000000
      axis 0.0 0.0 -90.0 xyz
   end
   begin
      id 14
      name LeftHand_dum2
      direction 1.000000 0.000000 0.000000
      length 3.937000
      axis 0.0 0.0 -90.0 xyz
   end
   begin
      id 15
      name LeftHandThumb1
      direction 0.000000 0.000000 1.000000
      length 3.937000
      axis 0.0 0.0 -90.0 xyz
      dof rx rz ry
   end
   begin
      id 16
      name RightShoulder
      direction -1.000000 0.000000 0.000000
      length 8.275398
      axis 0.0 0.0 90.0 xyz
      dof rx ry rz
   end
   begin
      id 17
      name RightArm
      direction -1.000000 0.000000 0.000000
      length 12.002200
      axis 0.0 0.0 90.0 xyz
      dof rx ry rz
   end
   begin
      id 18
      name RightForeArm
      direction -1.000000 0.000000 0.000000
      length 10.144633
      axis 0.0 0.0 90.0 xyz
      dof ry rz rx
   end
   begin
      id 19
      name RightHand
      direction 0.000000 0.000000 0.000000
      length 0.000000
      axis 0.0 0.0 90.0 xyz
      dof rx ry rz
   end
   begin
      id 20
      name RightHand_dum1
      direction 0.000000 0.000000 0.000000
      length 0.000000
      axis 0.0 0.0 90.0 xyz
   end
   begin
      id 21
      name RightHand_dum2
      direction -1.000000 0.000000 0.000000
      length 3.937000
      axis 0.0 0.0 90.0 xyz
   end
   begin
      id 22
      name RightHandThumb1
      direction 0.000000 0.000000 1.000000
      length 3.937000
      axis 0.0 0.0 90.0 xyz
      dof rx rz ry
   end
   begin
      id 23
      name LeftUpLeg
      direction 0.000000 -1.000000 0.000000
      length 19.394322
      axis 0.0 0.0 0.0 xyz
      dof rx ry rz
   end
   begin
      id 24
      name LeftLeg
      direction 0.000000 -1.000000 0.000000
      length 17.609563
      axis 0.0 0.0 0.0 xyz
      dof rx ry rz
   end
   begin
      id 25
      name LeftFoot
      direction 0.000000 -0.258819 0.965926
      length 6.085393
      axis 15.0 0.0 0.0 xyz
      dof rx ry rz
   end
   begin
      id 26
      name LeftToeBase
      direction 0.000000 0.000000 1.000000
      length 2.952750
      axis 0.0 0.0 0.0 xyz
      dof rx ry rz
   end
   begin
      id 27
      name RightUpLeg
      direction 0.000000 -1.000000 0.000000
      length 19.394322
      axis 0.0 0.0 0.0 xyz
      dof rx ry rz
   end
   begin
      id 28
      name RightLeg
      direction 0.000000 -1.000000 0.000000
      length 17.609563
      axis 0.0 0.0 0.0 xyz
      dof rx ry rz
   end
   begin
      id 29
      name RightFoot
      direction 0.000000 -0.258819 0.965926
      length 6.085393
      axis 15.0 0.0 0.0 xyz
      dof rx ry rz
   end
   begin
      id 30
      name RightToeBase
      direction 0.000000 0.000000 1.000000
      length 2.952750
      axis 0.0 0.0 0.0 xyz
      dof rx ry rz
   end
:hierarchy
   begin
      root Spine_dum LeftUpLeg_dum RightUpLeg_dum
      Spine_dum Spine
      LeftUpLeg_dum LeftUpLeg
      RightUpLeg_dum RightUpLeg
      Spine Spine_dum1 Spine_dum2 Spine_dum3
      Spine_dum1 Head
      Spine_dum2 LeftShoulder
      Spine_dum3 RightShoulder
      LeftShoulder LeftArm
      LeftArm LeftForeArm
      LeftForeArm LeftHand
      LeftHand LeftHand_dum1 LeftHand_dum2
      LeftHand_dum1 LeftHandThumb1
      RightShoulder RightArm
      RightArm RightForeArm
      RightForeArm RightHand
      RightHand RightHand_dum1 RightHand_dum2
      RightHand_dum1 RightHandThumb1
      LeftUpLeg LeftLeg
      LeftLeg LeftFoot
      LeftFoot LeftToeBase
      RightUpLeg RightLeg
      RightLeg RightFoot
      RightFoot RightToeBase
   end

# File created by Blade
# Date/Time:  Wed Jan 28 15:40:07 2015
# Frame Rate: 120.000 fps
#------------------------------------------------------
:FULLY-SPECIFIED
:DEGREES
404
root -8.455904 40.394617 -12.768180 -10.418769 -52.165930 48.475689
Spine 7.732178 8.261495 -27.880232
Head -6.768216 -10.890094 2.513353
LeftShoulder -13.964888 19.362732 5.917871
LeftArm 9.196566 14.307305 -60.469371
LeftForeArm -18.229267 -0.000000 10.575755
LeftHand 2.678337 -0.000000 -27.821617
LeftHandThumb1 -26.253704 0.000000 33.147579
RightShoulder -2.758260 9.490678 -23.170780
RightArm 4.699874 27.041213 68.949363
RightForeArm -1.616990 0.000000 73.858293
RightHand -8.944819 -0.000000 -49.439955
RightHandThumb1 -24.326973 -0.000000 -32.862282
LeftUpLeg -20.266268 -10.360715 19.169602
LeftLeg 138.660793 -0.000000 -0.000000
LeftFoot 25.508943 -7.891667 -15.770800
LeftToeBase 6.503611 -0.000000 -0.000000
RightUpLeg -34.076524 -3.936743 -17.814800
RightLeg 19.057698 -0.000000 -0.000000
RightFoot -22.793826 -16.434031 12.435031
RightToeBase 11.751815 -0.000000 -0.000000
405
root -8.444591 40.392616 -12.760872 -10.565669 -52.277640 48.678137
Spine 7.698855 8.261480 -27.887768
Head -6.875847 -10.806791 2.596854
LeftShoulder -13.985288 19.377858 5.891300
LeftArm 9.270834 14.440354 -60.539039
LeftForeArm -18.036850 -0.000000 10.478276
LeftHand 2.770859 -0.000000 -27.638973
LeftHandThumb1 -26.253704 0.000000 33.147579
RightShoulder -2.665709 9.527664 -23.170947
RightArm 4.730122 27.207643 68.802496
RightForeArm -1.617128 -0.000000 73.839874
RightHand -8.958107 -0.000000 -49.268288
RightHandThumb1 -24.326973 -0.000000 -32.862282
LeftUpLeg -20.142911 -10.712865 19.231377
LeftLeg 138.646013 -0.000000 -0.000000
LeftFoot 25.499188 -8.275901 -15.167496
LeftToeBase 6.051701 -0.000000 -0.000000
RightUpLeg -34.186840 -3.908900 -17.882603
RightLeg 19.113208 -0.000000 -0.000000
RightFoot -22.761312 -16.412271 12.345555
RightToeBase 11.691314 -0.000000 -0.000000
406
root -8.432458 40.390032 -12.752050 -10.699792 -52.422020 48.879407
Spine 7.622344 8.295595 -27.869883
Head -6.908425 -10.590782 2.521684
LeftShoulder -14.000028 19.440296 5.825506
LeftArm 9.392719 14.656223 -60.589841
LeftForeArm -17.916388 -0.000000 10.374257
LeftHand 2.850574 -0.000000 -27.454583
LeftHandThumb1 -26.253704 0.000000 33.147579
RightShoulder -2.589176 9.551466 -23.181250
RightArm 4.793127 27.314655 68.645520
RightForeArm -1.410137 -0.000000 73.852764
RightHand -8.929713 -0.000000 -49.092196
RightHandThumb1 -24.326973 -0.000000 -32.862282
LeftUpLeg -20.027306 -10.990706 19.283587
LeftLeg 138.622044 -0.000000 -0.000000
LeftFoot 25.558438 -8.567999 -14.564680
LeftToeBase 6.200644 -0.000000 -0.000000
RightUpLeg -34.319642 -3.861043 -17.934501
RightLeg 19.161872 -0.000000 -0.000000
RightFoot -22.689514 -16.448874 12.139214
RightToeBase 11.504707 -0.000000 -0.000000
407
root -8.420244 40.386791 -12.742750 -10.874987 -52.550812 49.100556
Spine 7.588828 8.347221 -27.880273
Head -7.015505 -10.541296 2.568344
LeftShoulder -14.013802 19.432590 5.791517
LeftArm 9.481753 15.011568 -60.647048
LeftForeArm -17.894038 -0.000000 10.265791
LeftHand 2.940526 -0.000000 -27.301779
LeftHandThumb1 -26.253704 0.000000 33.147579
RightShoulder -2.531113 9.537802 -23.176210
RightArm 4.991728 27.373724 68.455478
RightForeArm -1.261155 0.000000 73.772025
RightHand -9.320754 0.000000 -49.039778
RightHandThumb1 -24.326973 -0.000000 -32.862282
LeftUpLeg -19.897824 -11.330616 19.335376
LeftLeg 138.604397 -0.000000 -0.000000
LeftFoot 25.674694 -9.104284 -13.903555
LeftToeBase 6.043126 -0.000000 -0.000000
RightUpLeg -34.436164 -3.850389 -17.985940
RightLeg 19.239641 -0.000000 -0.000000
RightFoot -22.534390 -16.432758 11.787648
RightToeBase 10.948442 -0.000000 -0.000000
408
root -8.413656 40.382855 -12.728316 -11.103321 -52.739019 49.432602
Spine 7.431034 8.454378 -27.986431
Head -7.033215 -10.381570 2.631308
LeftShoulder -14.019556 19.401452 5.780553
LeftArm 9.482991 15.440750 -60.695279
LeftForeArm -17.855717 -0.000000 10.191287
LeftHand 3.087283 -0.000000 -27.217488
LeftHandThumb1 -26.253704 0.000000 33.147579
RightShoulder -2.458150 9.498857 -23.137970
RightArm 5.094841 27.446133 68.265298
RightForeArm -1.374400 -0.000000 73.716307
RightHand -9.431254 0.000000 -49.243288
RightHandThumb1 -24.326973 -0.000000 -32.862282
LeftUpLeg -19.741943 -11.522515 19.288153
LeftLeg 138.523156 -0.000000 -0.000000
LeftFoot 25.863836 -9.361050 -13.441804
LeftToeBase 5.916721 -0.000000 -0.000000
RightUpLeg -34.611693 -3.821763 -18.071838
RightLeg 19.311279 -0.000000 -0.000000
RightFoot -22.473769 -16.409637 11.554224
RightToeBase 10.769288 -0.000000 -0.000000
409
root -8.403455 40.377662 -12.714185 -11.326539 -52.933288 49.715462
Spine 7.329741 8.588162 -28.028933
Head -7.094902 -10.257303 2.658235
LeftShoulder -14.034588 19.363063 5.772105
LeftArm 9.517744 15.958632 -60.789577
LeftForeArm -17.764620 -0.000000 10.093708
LeftHand 3.242017 -0.000000 -26.999488
LeftHandThumb1 -26.253704 0.000000 33.147579
RightShoulder -2.412894 9.416307 -23.118910
RightArm 5.244971 27.516070 68.087170
RightForeArm -1.052037 -0.000000 73.712594
RightHand -9.200517 -0.000000 -48.949936
RightHandThumb1 -24.326973 -0.000000 -32.862282
LeftUpLeg -19.552834 -11.769373 19.256168
LeftLeg 138.432676 -0.000000 -0.000000
LeftFoot 26.267977 -9.704389 -13.401264
LeftToeBase 5.925893 -0.000000 -0.000000
RightUpLeg -34.767149 -3.767870 -18.134617
RightLeg 19.398101 -0.000000 -0.000000
RightFoot -22.416961 -16.392628 11.344166
RightToeBase 10.619699 -0.000000 -0.000000
410
root -8.390997 40.373144 -12.701065 -11.592003 -53.105887 50.010187
Spine 7.297478 8.713628 -28.058525
Head -7.191107 -10.148614 2.632088
LeftShoulder -14.057969 19.349263 5.733796
LeftArm 9.571915 16.375929 -60.876076
LeftForeArm -17.909663 -0.000000 10.049715
LeftHand 3.341159 -0.000000 -26.818481
LeftHandThumb1 -26.253704 0.000000 33.147579
RightShoulder -2.368218 9.474817 -23.158045
RightArm 5.272221 27.575947 67.884255
RightForeArm -0.772323 -0.000000 73.688358
RightHand -9.004370 0.000000 -48.276861
RightHandThumb1 -24.326973 -0.000000 -32.862282
LeftUpLeg -19.353458 -12.043345 19.214487
LeftLeg 138.340508 -0.000000 -0.000000
LeftFoot 26.642932 -10.264532 -13.221555
LeftToeBase 5.637500 -0.000000 -0.000000
RightUpLeg -34.895143 -3.728266 -18.203237
RightLeg 19.490316 -0.000000 -0.000000
RightFoot -22.418542 -16.432025 11.224265
RightToeBase 10.661120 -0.000000 -0.000000
411
root -8.379721 40.367296 -12.687053 -11.802724 -53.286422 50.291920
Spine 7.189754 8.809073 -28.066971
Head -7.271194 -10.049989 2.576035
LeftShoulder -14.158967 19.463926 5.639106
LeftArm 9.707917 16.547791 -60.943933
LeftForeArm -17.524667 -0.000000 10.115590
LeftHand 3.525207 -0.000000 -26.314817
LeftHandThumb1 -26.253704 0.000000 33.147579
RightShoulder -2.304542 9.532476 -23.212172
RightArm 5.248192 27.621045 67.673132
RightForeArm -0.666594 -0.000000 73.708750
RightHand -8.891502 0.000000 -48.042999
RightHandThumb1 -24.326973 -0.000000 -32.862282
LeftUpLeg -19.224481 -12.113336 19.137004
LeftLeg 138.322509 -0.000000 -0.000000
LeftFoot 26.866290 -10.652615 -12.556804
LeftToeBase 5.429826 -0.000000 -0.000000
RightUpLeg -35.064375 -3.674653 -18.264120
RightLeg 19.593028 -0.000000 -0.000000
RightFoot -22.308579 -16.425462 10.887177
RightToeBase 10.262847 -0.000000 -0.000000
412
root -8.365784 40.362004 -12.674709 -12.007914 -53.463682 50.526885
Spine 7.146124 8.939364 -28.007626
Head -7.371195 -9.977098 2.467058
LeftShoulder -14.279418 19.626539 5.513771
LeftArm 9.963325 16.533269 -60.960432
LeftForeArm -17.523403 -0.000000 10.063942
LeftHand 3.568340 -0.000000 -25.912349
LeftHandThumb1 -26.253704 0.000000 33.147579
RightShoulder -2.291180 9.547584 -23.305515
RightArm 5.318159 27.655702 67.494794
RightForeArm -0.494446 -0.000000 73.689406
RightHand -8.752512 -0.000000 -47.634149
RightHandThumb1 -24.326973 -0.000000 -32.862282
LeftUpLeg -19.027094 -12.218796 19.040189
LeftLeg 138.296351 -0.000000 -0.000000
LeftFoot 27.131513 -11.115433 -12.279589
LeftToeBase 4.576039 -0.000000 -0.000000
RightUpLeg -35.209140 -3.591006 -18.318021
RightLeg 19.704351 -0.000000 -0.000000
RightFoot -22.265387 -16.427544 10.748233
RightToeBase 10.174092 -0.000000 -0.000000
413
root -8.355358 40.355978 -12.661577 -12.193167 -53.638871 50.777636
Spine 7.035656 9.062643 -27.960720
Head -7.402839 -9.899942 2.297290
LeftShoulder -14.400223 19.808487 5.366799
LeftArm 10.214652 16.466906 -60.882573
LeftForeArm -17.817893 -0.000000 9.914751
LeftHand 3.619264 -0.000000 -25.949629
LeftHandThumb1 -26.253704 0.000000 33.147579
RightShoulder -2.258489 9.573739 -23.417205
RightArm 5.271689 27.780244 67.360634
RightForeArm -0.121563 -0.000000 73.753308
RightHand -8.260864 0.000000 -46.926779
RightHandThumb1 -24.326973 -0.000000 -32.862282
LeftUpLeg -18.855998 -12.235845 18.914553
LeftLeg 138.295243 -0.000000 -0.000000
LeftFoot 27.285409 -11.350340 -12.622356
LeftToeBase 5.816377 -0.000000 -0.000000
RightUpLeg -35.372122 -3.518444 -18.364633
RightLeg 19.789807 -0.000000 -0.000000
RightFoot -22.239709 -16.486454 10.606055
RightToeBase 10.066538 -0.000000 -0.000000
414
root -8.345458 40.351948 -12.646237 -12.401053 -53.797448 51.045372
Spine 6.946803 9.192801 -27.933281
Head -7.462176 -9.867671 2.168328
LeftShoulder -14.515764 19.922864 5.234580
LeftArm 10.427321 16.509886 -60.760326
LeftForeArm -18.061255 -0.000000 9.730790
LeftHand 3.627095 -0.000000 -26.115065
LeftHandThumb1 -26.253704 0.000000 33.147579
RightShoulder -2.290821 9.567253 -23.491723
RightArm 5.400326 27.757802 67.196415
RightForeArm 0.116447 0.000000 73.710589
RightHand -8.029226 -0.000000 -46.459858
RightHandThumb1 -24.326973 -0.000000 -32.862282
LeftUpLeg -18.691739 -12.220338 18.750006
LeftLeg 138.305666 -0.000000 -0.000000
LeftFoot 27.435308 -11.450305 -13.049900
LeftToeBase 6.001060 -0.000000 -0.000000
RightUpLeg -35.510827 -3.434182 -18.450859
RightLeg 19.861346 -0.000000 -0.000000
RightFoot -22.257787 -16.535288 10.576274
RightToeBase 10.043205 -0.000000 -0.000000
415
root -8.335366 40.347665 -12.631785 -12.547566 -53.942568 51.247585
Spine 6.843656 9.274202 -27.857013
Head -7.486228 -9.710497 2.032468
LeftShoulder -14.615460 19.977078 5.107602
LeftArm 10.491957 16.627664 -60.646348
LeftForeArm -18.346164 -0.000000 9.622305
LeftHand 3.608624 0.000000 -26.474338
LeftHandThumb1 -26.253704 0.000000 33.147579
RightShoulder -2.263513 9.593045 -23.551032
RightArm 5.444598 27.733032 66.973974
RightForeArm 0.268681 -0.000000 73.699458
RightHand -7.871768 -0.000000 -46.138107
RightHandThumb1 -24.326973 -0.000000 -32.862282
LeftUpLeg -18.539104 -12.162682 18.596296
LeftLeg 138.308862 -0.000000 -0.000000
LeftFoot 27.667738 -11.392477 -13.277271
LeftToeBase 5.656467 -0.000000 -0.000000
RightUpLeg -35.642633 -3.339462 -18.518840
RightLeg 19.935646 -0.000000 -0.000000
RightFoot -22.253394 -16.590007 10.454588
RightToeBase 9.988931 -0.000000 -0.000000
